<svg width="50" height="50" viewBox="0 0 50 50" fill="none" xmlns="http://www.w3.org/2000/svg">
<path d="M49.5 25C49.5 38.531 38.531 49.5 25 49.5C11.469 49.5 0.5 38.531 0.5 25C0.5 11.469 11.469 0.5 25 0.5C38.531 0.5 49.5 11.469 49.5 25Z" fill="#4C4CFC" stroke="white"/>
<path d="M16 35.2011C16 35.2011 17.8957 27.9271 24.7877 28.0006C31.9882 28.074 33.8104 35.0689 33.8104 35.0689" stroke="white" stroke-width="2.32" stroke-miterlimit="10" stroke-linecap="round" stroke-linejoin="round"/>
<path d="M18.3837 18.7545C18.3837 20.4261 17.0286 21.7813 15.3569 21.7813C13.6852 21.7813 12.3301 20.4261 12.3301 18.7545C12.3301 17.0828 13.6852 15.7276 15.3569 15.7276C17.0286 15.7276 18.3837 17.0828 18.3837 18.7545Z" fill="white" stroke="white"/>
<path d="M37.6894 18.7545C37.6894 20.4261 36.3342 21.7813 34.6626 21.7813C32.9909 21.7813 31.6357 20.4261 31.6357 18.7545C31.6357 17.0828 32.9909 15.7276 34.6626 15.7276C36.3342 15.7276 37.6894 17.0828 37.6894 18.7545Z" fill="white" stroke="white"/>
<path d="M32.9562 9.70875L40.1766 15.3817" stroke="white" stroke-width="2.25" stroke-miterlimit="10" stroke-linecap="round" stroke-linejoin="round"/>
<path d="M17.2204 9.7083L10 15.3813" stroke="white" stroke-width="2.25" stroke-miterlimit="10" stroke-linecap="round" stroke-linejoin="round"/>
</svg>
