<svg width="50" height="50" viewBox="0 0 50 50" fill="none" xmlns="http://www.w3.org/2000/svg">
<path d="M25 50C38.8071 50 50 38.8071 50 25C50 11.1929 38.8071 0 25 0C11.1929 0 0 11.1929 0 25C0 38.8071 11.1929 50 25 50Z" fill="#4C4CFC"/>
<path d="M13.5742 30.1617H37.9129C37.9129 30.1617 35.8924 41.8259 25.8446 41.8259C15.7969 41.8259 13.5742 30.1617 13.5742 30.1617Z" fill="white"/>
<path d="M38.8866 12.9684C36.0578 12.8031 34.7536 15.5768 34.4413 16.3483C34.129 15.5952 32.8248 12.8215 29.996 12.9684C26.7264 13.1521 23.8057 20.4996 34.4229 25.4225V25.4409H34.4413H34.4597V25.4225C45.0768 20.4996 42.1562 13.1521 38.8866 12.9684Z" fill="#D3232F"/>
<path d="M19.9305 12.9684C17.1017 12.8031 15.7975 15.5768 15.4853 16.3483C15.173 15.5952 13.8688 12.8215 11.04 12.9684C7.77033 13.1521 4.84968 20.4996 15.4669 25.4225V25.4409H15.4853H15.5036V25.4225C26.1208 20.4996 23.2002 13.1521 19.9305 12.9684Z" fill="#D3232F"/>
</svg>
