<svg width="50" height="50" viewBox="0 0 50 50" fill="none" xmlns="http://www.w3.org/2000/svg">
<path d="M49.5 25C49.5 38.5372 38.5372 49.5 25 49.5C11.4628 49.5 0.5 38.5372 0.5 25C0.5 11.4628 11.4628 0.5 25 0.5C38.5372 0.5 49.5 11.4628 49.5 25Z" fill="#4C4CFC" stroke="white"/>
<path d="M36.1318 27.461C36.1318 27.461 33.7622 36.5536 25.1473 36.4617C16.1465 36.3699 13.8688 27.6263 13.8688 27.6263" fill="#4C4CFC"/>
<path d="M36.1318 27.461C36.1318 27.461 33.7622 36.5536 25.1473 36.4617C16.1465 36.3699 13.8688 27.6263 13.8688 27.6263" stroke="white" stroke-width="2.32" stroke-miterlimit="10" stroke-linecap="round" stroke-linejoin="round"/>
<path d="M19.4355 20.9409C19.4355 20.9409 19.307 17.359 15.9087 17.4141C12.5105 17.4692 12.3819 20.9409 12.3819 20.9409" fill="#4C4CFC"/>
<path d="M19.4355 20.9409C19.4355 20.9409 19.307 17.359 15.9087 17.4141C12.5105 17.4692 12.3819 20.9409 12.3819 20.9409" stroke="white" stroke-width="2.25" stroke-miterlimit="10" stroke-linecap="round" stroke-linejoin="round"/>
<path d="M37.6201 20.9409C37.6201 20.9409 37.4915 17.359 34.0933 17.4141C30.6951 17.4692 30.5665 20.9409 30.5665 20.9409" fill="#4C4CFC"/>
<path d="M37.6201 20.9409C37.6201 20.9409 37.4915 17.359 34.0933 17.4141C30.6951 17.4692 30.5665 20.9409 30.5665 20.9409" stroke="white" stroke-width="2.25" stroke-miterlimit="10" stroke-linecap="round" stroke-linejoin="round"/>
</svg>
